<svg width="40" height="40" viewBox="0 0 40 40" xmlns="http://www.w3.org/2000/svg" xmlns:xlink="http://www.w3.org/1999/xlink"><defs><rect id="a" x="5" y="5" width="38" height="38" rx="3"/></defs><g fill="none" fill-rule="evenodd"><g transform="translate(-608 -219)"/><g filter="url(#filter-1)"><use fill="#4285F4" xlink:href="#path-2"/><use xlink:href="#path-2"/><use xlink:href="#path-2"/><use xlink:href="#path-2"/></g><g transform="translate(-4 -4)"><use fill="#FFF" xlink:href="#a"/><use xlink:href="#a"/><use xlink:href="#a"/><use xlink:href="#a"/></g><path d="M28.64 20.205c0-.639-.057-1.252-.164-1.841H20v3.481h4.844a4.14 4.14 0 0 1-1.796 2.716v2.259h2.908c1.702-1.567 2.684-3.875 2.684-6.615Z" fill="#4285F4"/><path d="M20 29c2.43 0 4.467-.806 5.956-2.18l-2.908-2.259c-.806.54-1.837.86-3.048.86-2.344 0-4.328-1.584-5.036-3.711h-3.007v2.332A8.997 8.997 0 0 0 20 29Z" fill="#34A853"/><path d="M14.964 21.71a5.41 5.41 0 0 1-.282-1.71c0-.593.102-1.17.282-1.71v-2.332h-3.007A8.996 8.996 0 0 0 11 20c0 1.452.348 2.827.957 4.042l3.007-2.332Z" fill="#FBBC05"/><path d="M20 14.58c1.321 0 2.508.454 3.44 1.345l2.582-2.58C24.463 11.891 22.426 11 20 11a8.997 8.997 0 0 0-8.043 4.958l3.007 2.332c.708-2.127 2.692-3.71 5.036-3.71Z" fill="#EA4335"/><path d="M11 11h18v18H11V11Z"/><g transform="translate(-4 -4)"/></g></svg>